<?xml version="1.0" standalone="no"?>
<!DOCTYPE svg PUBLIC "-//W3C//DTD SVG 20010904//EN"
 "http://www.w3.org/TR/2001/REC-SVG-20010904/DTD/svg10.dtd">
<svg version="1.0" xmlns="http://www.w3.org/2000/svg"
 width="4000.000000pt" height="4000.000000pt" viewBox="0 0 4000.000000 4000.000000"
 preserveAspectRatio="xMidYMid meet">
<metadata>
Created by potrace 1.11, written by Peter Selinger 2001-2013
</metadata>
<g transform="translate(0.000000,4000.000000) scale(0.100000,-0.100000)"
fill="#000000" stroke="none">
<path d="M15662 38293 c-47 -23 -89 -76 -106 -134 -12 -40 -30 -65 -88 -122
-356 -351 -849 -684 -1445 -973 -95 -46 -175 -84 -177 -84 -2 0 -46 -20 -97
-44 -52 -23 -134 -60 -184 -80 -49 -21 -112 -47 -140 -58 -132 -54 -180 -73
-330 -128 -77 -28 -158 -58 -180 -67 -97 -36 -574 -192 -720 -234 -55 -16
-122 -36 -150 -44 -57 -17 -188 -54 -285 -80 -36 -10 -85 -23 -110 -31 -83
-24 -566 -143 -710 -174 -19 -4 -87 -20 -150 -34 -220 -51 -674 -144 -970
-197 -63 -12 -137 -25 -165 -31 -53 -10 -77 -14 -165 -28 -54 -9 -134 -23
-195 -34 -16 -3 -59 -10 -95 -15 -36 -6 -137 -21 -225 -35 -88 -14 -176 -28
-195 -31 -60 -9 -240 -35 -354 -50 -61 -9 -121 -17 -135 -20 -54 -8 -179 -24
-241 -31 -36 -3 -74 -8 -85 -11 -18 -4 -357 -45 -485 -59 -30 -3 -83 -10 -117
-15 -34 -5 -66 -8 -70 -7 -4 1 -28 -1 -53 -5 -25 -4 -155 -18 -290 -32 -225
-22 -277 -27 -424 -40 -108 -9 -173 -15 -236 -20 -36 -3 -87 -8 -115 -10 -169
-15 -292 -25 -375 -30 -52 -3 -111 -8 -130 -10 -19 -2 -78 -7 -130 -10 -52 -3
-124 -8 -160 -10 -110 -8 -200 -14 -325 -20 -66 -3 -145 -8 -175 -10 -30 -2
-122 -7 -205 -10 -82 -3 -177 -8 -210 -10 -33 -2 -157 -7 -275 -10 -281 -9
-328 -19 -384 -85 -36 -43 -45 -84 -56 -250 -5 -80 -11 -176 -14 -215 -9 -106
-24 -339 -31 -455 -8 -147 -18 -308 -21 -330 -1 -14 -5 -83 -8 -155 -4 -71 -8
-148 -11 -170 -2 -22 -7 -94 -10 -160 -3 -66 -8 -136 -10 -155 -2 -19 -7 -96
-11 -170 -3 -74 -7 -155 -9 -180 -5 -69 -14 -215 -20 -320 -9 -175 -15 -274
-20 -340 -3 -36 -7 -110 -10 -165 -6 -105 -12 -219 -20 -345 -3 -41 -7 -120
-10 -175 -3 -55 -8 -131 -10 -170 -2 -38 -7 -119 -10 -180 -3 -60 -8 -141 -10
-180 -2 -38 -7 -115 -10 -170 -3 -55 -8 -134 -10 -175 -3 -41 -7 -122 -10
-180 -10 -186 -15 -283 -20 -370 -3 -47 -7 -125 -10 -175 -3 -49 -7 -139 -10
-200 -4 -60 -8 -141 -10 -180 -2 -38 -7 -124 -10 -190 -4 -66 -8 -151 -10
-190 -2 -38 -7 -124 -10 -190 -3 -66 -8 -154 -10 -195 -2 -41 -7 -129 -10
-195 -7 -145 -13 -257 -20 -390 -3 -55 -7 -149 -10 -210 -3 -60 -7 -155 -10
-210 -8 -159 -20 -419 -30 -635 -3 -69 -7 -168 -10 -220 -2 -52 -7 -158 -10
-235 -3 -77 -8 -182 -10 -234 -3 -51 -7 -148 -10 -215 -3 -66 -7 -175 -10
-241 -3 -66 -7 -183 -10 -260 -3 -77 -7 -192 -10 -255 -3 -63 -7 -191 -10
-285 -3 -93 -7 -215 -10 -270 -2 -55 -7 -188 -10 -295 -3 -107 -8 -256 -10
-330 -5 -138 -10 -348 -20 -751 -14 -582 -1 -1427 30 -1889 3 -41 7 -115 10
-165 3 -49 7 -117 10 -150 2 -33 7 -98 10 -145 7 -99 27 -343 40 -475 2 -22 7
-78 10 -124 4 -47 8 -92 10 -100 1 -9 6 -50 10 -91 3 -41 8 -93 11 -115 2 -22
6 -59 8 -82 3 -23 7 -61 10 -85 3 -24 8 -65 11 -93 4 -43 38 -324 51 -425 2
-19 11 -87 19 -150 8 -63 17 -126 19 -140 3 -14 10 -61 16 -105 16 -121 18
-134 29 -210 6 -38 13 -88 16 -110 3 -22 13 -78 20 -125 8 -47 19 -114 24
-150 6 -36 15 -94 21 -130 7 -36 13 -77 15 -92 9 -65 95 -538 116 -638 5 -25
30 -148 55 -275 26 -126 54 -268 64 -315 10 -47 27 -132 39 -189 12 -57 23
-106 26 -110 2 -4 7 -23 10 -42 3 -19 14 -70 25 -114 10 -44 31 -132 46 -195
14 -63 59 -245 99 -405 84 -334 119 -465 189 -715 50 -179 160 -553 207 -705
23 -71 48 -152 56 -180 8 -27 18 -59 23 -70 4 -11 46 -137 93 -280 47 -143
104 -312 127 -375 23 -63 47 -133 54 -155 20 -59 132 -367 171 -465 18 -47 46
-119 61 -160 15 -41 31 -79 36 -85 4 -5 8 -15 8 -22 0 -7 18 -54 39 -105 21
-51 56 -136 76 -188 21 -52 47 -115 57 -138 11 -24 33 -78 50 -120 16 -42 34
-83 38 -91 5 -9 68 -151 141 -316 72 -165 150 -340 174 -390 23 -49 66 -139
95 -200 64 -136 273 -553 348 -695 89 -171 194 -365 228 -425 13 -22 32 -58
44 -80 11 -22 33 -62 50 -90 16 -27 52 -90 80 -140 28 -49 55 -97 60 -105 30
-46 170 -284 170 -288 0 -3 11 -20 25 -38 14 -18 25 -35 25 -38 0 -6 96 -163
131 -213 16 -23 29 -44 29 -47 0 -4 17 -32 39 -64 49 -73 114 -174 121 -187 7
-14 84 -129 90 -135 3 -3 23 -33 45 -68 22 -34 51 -78 65 -96 14 -19 50 -71
80 -116 30 -45 72 -105 92 -134 20 -28 47 -66 60 -84 13 -18 34 -48 48 -66 14
-19 43 -59 65 -90 22 -31 90 -122 150 -202 61 -81 119 -159 130 -174 24 -33
66 -88 115 -150 20 -25 63 -79 96 -120 202 -255 684 -820 794 -930 14 -14 74
-79 135 -145 133 -146 666 -679 789 -790 49 -44 98 -89 110 -101 11 -11 66
-60 120 -110 55 -49 112 -100 126 -114 15 -14 40 -36 56 -49 47 -40 147 -125
164 -141 9 -8 37 -31 61 -51 72 -60 202 -168 229 -191 41 -35 263 -209 409
-321 140 -107 153 -117 243 -182 46 -32 88 -64 95 -71 6 -6 49 -37 95 -68 46
-32 113 -78 149 -104 128 -91 189 -132 195 -132 3 0 20 -12 38 -26 29 -24 70
-51 301 -199 137 -88 153 -98 255 -160 97 -59 133 -81 207 -128 24 -15 45 -27
47 -27 2 0 44 -24 93 -54 92 -56 200 -117 243 -138 14 -7 36 -19 50 -28 14
-10 54 -32 90 -51 36 -18 119 -63 185 -99 114 -62 656 -334 795 -398 36 -16
99 -46 140 -65 41 -19 129 -57 195 -86 66 -28 134 -58 150 -66 37 -17 150 -65
265 -112 47 -19 99 -40 115 -48 28 -12 210 -83 365 -142 36 -13 81 -30 100
-38 102 -39 259 -95 390 -140 52 -17 149 -50 215 -72 124 -42 460 -149 575
-183 147 -44 212 -62 315 -90 17 -5 80 -22 140 -39 229 -64 742 -191 930 -231
55 -11 118 -25 140 -31 45 -10 571 -115 653 -130 28 -5 76 -13 105 -18 165
-29 292 -51 392 -66 55 -9 127 -20 160 -25 33 -5 76 -12 95 -15 19 -2 88 -12
153 -22 86 -13 125 -14 145 -7 17 7 40 7 62 1 32 -8 59 -7 158 7 18 3 69 10
115 16 88 12 94 13 202 31 78 13 81 13 180 28 39 6 77 13 85 14 8 2 35 7 60
11 25 4 52 9 60 10 8 2 33 6 55 10 22 4 65 11 95 16 66 12 578 114 705 141 50
11 113 23 140 29 28 5 65 13 83 19 17 5 32 8 32 5 0 -3 8 0 18 5 9 5 31 11 47
14 17 2 50 10 73 16 24 7 81 21 125 31 238 55 460 113 767 201 96 28 180 52
185 53 6 2 17 5 25 8 8 3 56 18 105 32 139 41 318 97 340 106 11 5 76 26 145
49 117 38 386 130 475 163 22 9 74 27 115 42 76 28 218 82 300 116 25 10 88
35 140 55 98 38 193 77 245 100 17 7 80 34 140 60 61 26 124 53 140 60 91 42
144 65 149 65 4 0 46 19 296 137 140 66 534 262 655 326 168 89 295 157 330
178 17 10 48 28 70 39 22 11 58 31 80 44 22 12 56 31 75 42 19 11 106 62 193
114 87 52 166 100 175 105 39 22 262 161 337 210 44 29 114 74 155 101 41 26
77 51 80 55 3 3 10 8 15 10 13 5 185 122 295 199 47 34 96 68 110 78 53 35
182 131 369 271 106 80 205 154 219 163 13 9 28 20 31 25 3 5 38 33 76 62 64
49 153 121 181 146 6 5 28 24 49 40 22 17 75 61 119 99 145 122 170 144 210
178 22 18 52 44 66 58 14 14 52 48 84 75 32 28 70 61 85 75 15 14 72 66 126
115 300 273 770 744 1060 1063 22 24 51 56 65 71 67 71 430 491 520 602 19 24
50 61 68 83 18 23 41 50 50 61 10 11 40 49 67 85 28 36 52 67 55 70 8 7 178
227 230 296 177 237 300 405 355 484 13 19 40 58 60 85 41 59 143 207 165 241
8 13 40 61 71 106 31 46 91 137 133 203 43 66 91 139 107 163 16 23 29 45 29
49 0 3 11 21 25 39 14 18 25 36 25 40 0 4 11 21 23 38 13 17 26 36 28 41 2 6
23 42 47 80 24 39 48 79 55 90 7 11 24 39 39 62 16 23 28 44 28 46 0 3 18 35
41 72 22 37 50 84 62 104 11 20 43 76 71 124 63 109 73 127 114 202 18 33 36
67 41 75 44 70 283 525 416 788 131 263 295 607 405 857 29 66 68 152 87 192
18 40 33 75 33 78 0 6 30 75 65 150 8 17 26 59 40 95 14 36 32 79 40 95 7 17
32 77 55 135 36 93 63 157 91 225 5 11 29 74 54 140 25 66 52 133 60 148 8 16
15 34 15 40 0 9 34 103 60 162 8 19 60 166 168 470 62 175 251 742 258 775 0
3 3 12 6 20 3 8 13 42 23 75 10 33 23 76 30 95 7 19 45 148 85 285 40 138 78
270 86 295 7 25 23 81 35 125 12 44 32 121 46 170 41 148 74 278 82 315 4 19
13 51 19 70 11 35 50 188 57 225 3 11 9 38 14 60 35 139 73 296 81 335 5 25
21 95 35 155 14 61 27 119 30 130 2 11 11 52 20 90 68 307 217 1070 251 1290
3 17 11 66 19 110 14 83 20 119 56 340 23 148 24 153 38 255 11 77 46 318 55
380 3 19 12 91 21 160 8 69 17 141 20 160 6 41 54 454 60 520 3 25 7 65 10 90
2 25 7 72 11 105 3 33 7 74 9 90 2 17 6 71 10 120 4 50 9 99 11 110 2 11 6 52
9 90 3 39 9 122 15 185 5 63 12 158 15 210 3 52 8 115 10 140 5 43 8 96 20
330 3 58 7 141 10 185 27 442 32 1363 11 2015 -3 85 -8 250 -11 365 -3 116 -7
266 -10 335 -3 69 -7 204 -10 300 -3 96 -8 222 -10 280 -2 58 -7 182 -10 275
-3 94 -8 208 -10 255 -3 47 -7 164 -10 260 -3 97 -5 178 -6 180 -3 13 -7 104
-13 275 -4 105 -9 217 -11 250 -3 33 -7 132 -10 220 -3 88 -8 185 -10 215 -1
30 -6 129 -9 220 -4 91 -9 188 -11 215 -2 28 -7 120 -10 205 -4 85 -8 184 -10
220 -2 36 -7 124 -10 195 -3 72 -8 166 -10 210 -3 44 -7 134 -10 200 -3 66 -7
147 -10 180 -2 33 -7 125 -10 205 -3 80 -8 163 -10 185 -2 22 -7 103 -10 180
-3 77 -8 165 -10 195 -2 30 -7 118 -10 195 -3 77 -8 160 -10 185 -3 25 -7 109
-10 188 -2 78 -7 152 -9 165 -3 12 -8 94 -11 182 -4 88 -8 178 -10 200 -2 22
-7 99 -10 170 -3 72 -8 153 -10 180 -2 28 -6 106 -10 175 -3 69 -7 148 -10
175 -2 28 -7 104 -10 170 -6 126 -7 143 -25 425 -6 96 -13 221 -15 278 -2 56
-6 121 -9 145 -3 23 -8 101 -12 172 -3 72 -7 153 -9 180 -2 28 -6 102 -9 165
-4 63 -9 138 -11 165 -3 28 -7 93 -10 145 -2 52 -7 127 -10 165 -2 39 -7 120
-11 180 -3 61 -7 128 -9 150 -1 22 -6 99 -10 170 -4 72 -8 137 -10 145 -1 8
-6 84 -10 169 -3 84 -8 160 -10 170 -1 9 -6 75 -9 146 -4 72 -8 146 -11 165
-4 31 -9 117 -20 347 -4 77 -19 117 -62 159 -44 44 -78 52 -253 58 -255 10
-418 17 -495 21 -38 2 -133 6 -210 10 -77 4 -162 8 -190 10 -27 2 -102 6 -165
10 -63 3 -137 8 -165 10 -27 3 -95 7 -150 10 -55 3 -120 7 -145 10 -53 5 -154
13 -265 20 -44 3 -152 12 -240 20 -88 8 -189 17 -225 19 -36 3 -85 7 -110 10
-55 6 -159 15 -231 21 -30 3 -74 7 -99 10 -25 3 -67 7 -95 10 -27 2 -68 6 -90
9 -44 6 -125 15 -195 21 -25 2 -65 7 -90 10 -115 15 -296 36 -310 36 -8 0 -51
5 -95 10 -44 6 -100 12 -125 15 -25 3 -56 7 -70 9 -26 4 -163 21 -235 30 -22
3 -51 7 -65 9 -14 3 -47 7 -75 11 -27 3 -81 10 -120 16 -38 5 -83 12 -100 14
-35 5 -155 22 -205 30 -19 2 -82 12 -140 21 -201 30 -225 34 -245 38 -11 2
-55 9 -98 16 -43 6 -88 13 -100 15 -12 2 -51 9 -87 15 -36 6 -90 15 -120 21
-30 5 -71 12 -90 15 -30 5 -135 24 -480 89 -41 7 -90 16 -108 19 -18 4 -65 13
-105 22 -39 9 -81 17 -92 19 -29 5 -103 20 -240 50 -66 15 -129 28 -140 31
-35 6 -207 46 -290 66 -44 11 -89 21 -100 23 -57 12 -159 38 -400 100 -165 42
-364 96 -430 116 -16 5 -120 36 -230 68 -295 87 -783 251 -1000 336 -33 13
-101 39 -152 59 -50 19 -106 42 -125 50 -18 8 -49 21 -68 29 -84 36 -190 82
-245 107 -33 15 -91 42 -130 60 -214 98 -600 303 -672 356 -17 13 -34 24 -37
24 -3 0 -49 28 -103 62 -90 57 -128 82 -238 160 -22 16 -51 36 -65 46 -148 99
-517 434 -608 550 -14 18 -43 42 -65 54 -35 17 -53 19 -142 15 -92 -5 -111 -9
-181 -42 -44 -21 -135 -62 -204 -92 -69 -29 -134 -58 -145 -63 -85 -41 -649
-250 -673 -250 -6 0 -26 -7 -44 -15 -18 -8 -78 -28 -133 -44 -240 -73 -281
-84 -295 -86 -9 0 -20 -4 -25 -7 -11 -6 -413 -107 -455 -114 -14 -2 -43 -8
-65 -14 -81 -19 -183 -40 -270 -54 -90 -15 -174 -30 -231 -40 -114 -21 -545
-72 -679 -81 -55 -4 -111 -8 -124 -10 -154 -24 -1025 -27 -1296 -5 -49 5 -133
11 -185 14 -52 4 -111 9 -130 11 -19 3 -57 7 -85 9 -65 7 -143 16 -175 21 -14
2 -63 9 -110 15 -47 5 -96 12 -109 15 -14 2 -47 7 -75 10 -28 3 -60 8 -71 10
-11 3 -33 7 -50 10 -16 3 -57 10 -90 16 -33 6 -71 13 -85 15 -66 11 -242 46
-297 59 -35 8 -91 21 -125 29 -192 45 -299 72 -443 112 -203 57 -381 111 -423
130 -18 8 -38 14 -44 14 -11 0 -233 79 -358 127 -100 38 -211 83 -245 97 -16
8 -59 26 -95 41 -36 15 -143 65 -238 111 -187 91 -231 101 -300 67z"/>
</g>
</svg>
